<?xml version="1.0" encoding="utf-8"?>
<!-- Generator: Adobe Illustrator 15.0.0, SVG Export Plug-In . SVG Version: 6.00 Build 0)  -->
<!DOCTYPE svg PUBLIC "-//W3C//DTD SVG 1.0//EN" "http://www.w3.org/TR/2001/REC-SVG-20010904/DTD/svg10.dtd">
<svg version="1.0" id="BB8" xmlns="http://www.w3.org/2000/svg" xmlns:xlink="http://www.w3.org/1999/xlink" x="0px" y="0px"
	 width="512px" height="512px" viewBox="0 0 512 512" enable-background="new 0 0 512 512" xml:space="preserve">
<g id="Inner_body">
	<circle fill="none" stroke="#000000" stroke-width="13" stroke-miterlimit="10" cx="239.954" cy="353.953" r="59.954"/>
	
		<line fill="none" stroke="#000000" stroke-width="13" stroke-miterlimit="10" x1="199.21" y1="309.977" x2="219.342" y2="330.109"/>
	<line fill="none" stroke="#000000" stroke-width="13" stroke-miterlimit="10" x1="279.932" y1="309.977" x2="259.8" y2="330.109"/>
	<line fill="none" stroke="#000000" stroke-width="13" stroke-miterlimit="10" x1="214.932" y1="374.977" x2="194.8" y2="395.109"/>
	
		<line fill="none" stroke="#000000" stroke-width="13" stroke-miterlimit="10" x1="264.21" y1="375.977" x2="284.342" y2="396.109"/>
</g>
<circle id="Body" fill="none" stroke="#000000" stroke-width="13" stroke-miterlimit="10" cx="256.547" cy="354.547" r="138.547"/>
<g id="Head">
	<circle cx="269.75" cy="139.75" r="24.75"/>
	<path fill="none" stroke="#000000" stroke-width="13" stroke-miterlimit="10" d="M336.654,204.023
		C340.098,194.662,342,184.556,342,174c0-48.049-38.951-87-87-87s-87,38.951-87,87c0,10.574,1.908,20.696,5.363,30.071
		C197.124,189.444,225.098,181,255.047,181C284.964,181,312.91,189.425,336.654,204.023z"/>
	<line fill="none" stroke="#000000" stroke-width="6" stroke-miterlimit="10" x1="265" y1="88" x2="265" y2="67"/>
	<line fill="none" stroke="#000000" stroke-width="8" stroke-miterlimit="10" x1="287" y1="94" x2="287" y2="20"/>
</g>
</svg>
